<?xml version="1.0" standalone="no"?>
<!DOCTYPE svg PUBLIC "-//W3C//DTD SVG 20010904//EN"
 "http://www.w3.org/TR/2001/REC-SVG-20010904/DTD/svg10.dtd">
<svg version="1.0" xmlns="http://www.w3.org/2000/svg"
 width="1024.000000pt" height="1024.000000pt" viewBox="0 0 1024.000000 1024.000000"
 preserveAspectRatio="xMidYMid meet">
<metadata>
Created by potrace 1.11, written by Peter Selinger 2001-2013
</metadata>
<g transform="translate(0.000000,1024.000000) scale(0.100000,-0.100000)"
fill="#000000" stroke="none">
<path d="M5030 10083 c0 -4 -44 -8 -98 -9 -121 -1 -257 -11 -392 -28 -19 -2
-57 -7 -85 -10 -51 -7 -90 -13 -90 -16 0 0 -18 -3 -40 -5 -43 -4 -85 -11 -125
-19 -14 -3 -36 -8 -50 -11 -112 -23 -109 -22 -112 -25 -2 -1 -12 -3 -23 -5
-49 -7 -326 -79 -360 -94 -34 -15 -189 -64 -202 -64 -7 0 -13 -4 -13 -9 0 -4
-7 -8 -15 -8 -33 0 -467 -184 -473 -201 -2 -5 -11 -9 -20 -10 -9 0 -48 -18
-87 -39 -38 -22 -101 -55 -138 -75 -170 -89 -531 -332 -690 -465 -10 -8 -27
-22 -37 -30 -10 -8 -37 -31 -60 -50 -24 -19 -66 -55 -94 -80 -75 -65 -375
-367 -420 -422 -21 -26 -52 -62 -68 -80 -17 -18 -46 -53 -67 -78 -20 -25 -39
-46 -43 -48 -5 -2 -8 -10 -8 -17 0 -7 -4 -15 -8 -17 -31 -12 -372 -514 -372
-547 0 -6 -4 -11 -10 -11 -5 0 -10 -4 -10 -9 0 -6 -15 -36 -34 -68 -19 -32
-35 -62 -36 -68 -1 -5 -6 -16 -12 -23 -18 -22 -127 -250 -185 -387 -30 -71
-60 -143 -68 -160 -7 -16 -16 -41 -20 -55 -3 -14 -10 -34 -15 -45 -10 -26 -52
-145 -55 -159 -1 -6 -5 -18 -8 -26 -8 -21 -28 -89 -31 -103 -2 -7 -9 -32 -16
-57 -7 -25 -14 -54 -16 -65 -1 -11 -3 -21 -4 -22 -2 -2 -4 -7 -5 -13 -1 -5 -3
-11 -5 -12 -2 -4 -6 -22 -15 -67 -3 -19 -9 -39 -12 -44 -3 -5 -7 -21 -8 -36
-2 -14 -10 -59 -19 -99 -9 -40 -18 -89 -21 -110 -2 -20 -7 -48 -10 -62 -3 -14
-8 -45 -11 -70 -2 -25 -6 -52 -9 -60 -2 -8 -7 -46 -11 -85 -3 -38 -8 -79 -10
-89 -25 -132 -25 -809 1 -986 2 -19 7 -57 9 -85 5 -55 22 -176 30 -215 3 -14
7 -43 10 -65 3 -22 12 -74 21 -115 8 -41 16 -84 18 -95 2 -11 7 -27 10 -35 9
-26 38 -154 38 -172 0 -10 4 -18 9 -18 4 0 7 -8 6 -17 -2 -10 0 -25 5 -33 4
-8 17 -49 29 -90 21 -75 32 -108 46 -145 4 -11 8 -24 10 -30 15 -61 121 -327
170 -429 8 -16 14 -35 14 -43 0 -7 5 -13 10 -13 6 0 10 -5 10 -12 0 -13 116
-246 153 -305 12 -21 29 -51 37 -68 8 -16 17 -32 20 -35 3 -3 29 -45 59 -95
29 -49 62 -99 72 -110 10 -11 18 -23 18 -28 0 -8 24 -43 58 -87 13 -15 23 -32
23 -38 0 -6 3 -12 8 -14 4 -1 40 -48 81 -103 41 -55 81 -106 88 -113 7 -8 26
-30 41 -50 118 -155 439 -481 628 -637 26 -22 58 -49 70 -60 12 -11 35 -29 50
-40 15 -11 33 -26 40 -33 7 -6 15 -12 19 -12 4 0 13 -7 21 -15 9 -8 46 -36 82
-62 37 -26 73 -53 80 -60 7 -7 17 -13 22 -13 5 0 15 -6 22 -13 7 -7 38 -28 68
-47 30 -19 57 -37 60 -40 11 -14 163 -102 325 -190 44 -24 82 -46 85 -49 3 -3
14 -7 24 -9 10 -2 25 -10 33 -18 8 -8 18 -14 23 -14 4 0 50 -19 101 -43 52
-24 119 -54 149 -66 30 -13 67 -30 83 -38 15 -8 27 -11 27 -8 0 3 10 0 23 -7
12 -7 24 -13 27 -14 13 -3 47 -16 62 -25 10 -5 26 -9 36 -9 10 0 22 -3 26 -8
4 -4 11 -7 14 -8 4 0 14 -3 22 -7 18 -7 242 -76 268 -82 9 -3 79 -20 154 -39
120 -31 263 -62 323 -71 11 -2 38 -6 60 -9 129 -21 218 -33 296 -40 26 -2 52
-7 58 -10 6 -4 11 -2 11 4 0 6 5 8 13 3 14 -9 51 -12 210 -16 64 -2 120 -7
123 -10 4 -3 14 -2 24 3 10 5 20 6 24 3 8 -8 91 -7 104 1 6 3 13 2 17 -4 4 -6
11 -7 18 -3 6 4 61 8 122 9 60 1 137 5 170 9 33 3 87 8 120 11 82 8 195 22
237 30 9 1 38 6 65 10 26 3 57 8 68 10 11 3 35 7 54 10 18 3 41 7 50 10 9 2
34 8 56 13 22 5 51 12 65 15 41 8 61 13 150 36 47 12 90 23 95 25 6 1 17 5 25
8 8 4 26 9 40 11 14 3 25 5 25 6 0 1 7 3 15 5 23 6 112 36 135 45 11 4 56 20
100 36 44 15 91 32 105 37 14 6 27 11 30 12 3 1 17 7 33 13 39 17 82 34 82 32
0 -1 223 103 285 133 25 12 48 27 52 32 4 6 8 7 8 3 0 -4 39 15 86 42 47 28
88 50 90 50 3 0 28 15 57 33 29 18 59 36 67 40 36 17 152 96 432 295 18 13 44
33 58 45 14 12 48 40 75 62 28 22 57 46 66 55 10 8 38 33 64 55 57 48 376 364
425 420 19 22 59 69 88 105 29 36 67 81 83 100 198 229 504 726 640 1038 12
28 27 52 32 52 5 0 7 6 4 13 -2 6 5 30 16 52 12 22 22 45 23 50 1 6 22 62 47
125 51 131 107 292 113 324 2 12 12 48 23 81 11 32 17 63 15 67 -3 4 -1 8 4 8
5 0 9 6 10 13 0 6 3 23 6 37 3 14 8 34 10 45 2 11 12 49 21 84 9 35 18 77 20
92 2 16 6 36 9 46 3 10 7 34 10 53 3 19 8 46 11 60 2 13 7 40 10 60 3 20 7 45
9 56 2 12 7 45 10 75 4 30 9 70 11 89 6 45 13 112 22 225 10 117 10 614 0 730
-10 115 -13 138 -32 297 -3 20 -11 78 -20 129 -8 50 -12 96 -9 100 3 5 1 9 -3
9 -5 0 -15 35 -23 78 -7 42 -15 83 -17 89 -2 7 -5 21 -7 30 -3 10 -5 18 -6 18
-1 0 -3 11 -5 25 -2 14 -8 43 -14 65 -7 22 -14 48 -16 59 -2 10 -12 44 -21 75
-10 31 -19 63 -20 72 -12 61 -145 425 -201 549 -27 59 -46 102 -48 110 -5 19
-121 246 -127 248 -5 2 -8 8 -8 14 0 5 -28 57 -61 116 -34 58 -66 115 -73 126
-6 12 -13 23 -16 26 -3 3 -26 38 -50 78 -25 39 -48 72 -52 72 -5 0 -8 5 -8 11
0 9 -84 133 -117 174 -5 6 -31 39 -58 75 -27 36 -54 70 -60 76 -5 7 -21 26
-35 44 -14 17 -36 44 -50 60 -14 15 -45 52 -70 81 -95 113 -428 437 -538 524
-14 11 -46 37 -71 58 -25 20 -50 41 -56 45 -5 4 -40 31 -77 60 -37 28 -70 52
-73 52 -3 0 -11 5 -18 10 -48 40 -66 54 -99 72 -21 12 -38 25 -38 30 0 4 -5 8
-11 8 -6 0 -25 11 -43 25 -18 14 -38 25 -44 25 -7 0 -12 5 -12 10 0 6 -4 10
-10 10 -5 0 -36 17 -67 37 -32 21 -71 45 -88 54 -16 8 -64 34 -105 57 -132 73
-423 212 -444 212 -6 0 -16 4 -22 8 -15 14 -170 73 -344 131 -156 53 -422 125
-495 136 -11 1 -27 5 -35 8 -8 3 -31 9 -50 12 -63 10 -74 12 -135 24 -33 6
-80 13 -105 16 -25 3 -57 7 -71 10 -24 6 -69 10 -184 21 -27 2 -75 7 -105 9
-30 3 -103 7 -161 9 -58 1 -110 6 -116 9 -7 4 -14 3 -17 -2 -4 -5 -18 -6 -34
-2 -15 5 -36 5 -47 1 -11 -4 -25 -3 -32 2 -7 5 -14 5 -18 -2 -4 -7 -12 -7 -26
0 -10 6 -19 7 -19 3z m82 -967 c26 -1 48 3 48 7 0 5 5 5 11 2 6 -4 65 -9 132
-11 67 -3 138 -6 157 -8 19 -2 64 -7 100 -10 36 -4 81 -9 100 -12 19 -3 49 -7
65 -9 17 -2 46 -7 65 -10 19 -3 46 -8 60 -10 37 -6 317 -72 365 -87 22 -6 42
-12 45 -13 31 -8 99 -29 115 -35 22 -9 53 -19 60 -20 3 0 25 -9 50 -20 25 -11
47 -19 50 -20 3 0 20 -6 38 -13 17 -8 50 -20 72 -28 22 -7 48 -20 58 -28 9 -8
17 -11 17 -7 0 4 17 -2 38 -12 20 -11 69 -35 107 -53 73 -35 251 -132 320
-175 22 -13 47 -27 55 -31 8 -4 20 -11 25 -15 6 -5 62 -44 125 -88 122 -84
157 -109 174 -125 6 -5 28 -23 49 -38 20 -16 48 -39 62 -53 13 -13 27 -24 30
-24 16 0 432 -410 417 -410 -4 0 -2 -4 3 -8 15 -10 86 -92 115 -131 14 -19 30
-39 35 -45 39 -41 257 -359 278 -406 4 -8 16 -28 26 -45 54 -83 157 -290 224
-447 53 -122 160 -427 172 -488 2 -8 15 -60 28 -115 24 -93 52 -231 62 -300 3
-16 7 -39 9 -50 2 -12 7 -48 11 -80 4 -33 9 -71 11 -85 26 -156 25 -671 -1
-880 -2 -19 -7 -55 -9 -80 -3 -25 -7 -54 -10 -65 -2 -11 -7 -42 -10 -70 -4
-27 -9 -57 -11 -65 -2 -8 -7 -28 -10 -45 -6 -39 -10 -55 -30 -144 -9 -40 -19
-80 -20 -90 -2 -9 -4 -17 -5 -18 -2 -2 -4 -7 -5 -13 -1 -5 -4 -13 -5 -17 -2
-5 -4 -12 -5 -18 -2 -15 -35 -127 -42 -145 -3 -8 -8 -23 -10 -34 -2 -10 -10
-33 -17 -50 -8 -17 -23 -58 -34 -91 -50 -147 -240 -555 -263 -563 -5 -2 -9
-12 -9 -22 0 -10 -3 -20 -8 -22 -4 -1 -27 -37 -51 -78 -68 -116 -210 -319
-290 -416 -14 -17 -42 -50 -61 -74 -19 -23 -53 -63 -75 -89 -54 -62 -323 -330
-364 -361 -18 -14 -47 -40 -66 -58 -18 -17 -36 -32 -39 -32 -7 0 -39 -26 -74
-60 -14 -14 -26 -23 -27 -20 0 3 -7 -1 -15 -7 -49 -41 -89 -70 -212 -152 -75
-50 -139 -91 -142 -91 -3 0 -36 -18 -73 -41 -88 -54 -373 -197 -408 -205 -5
-1 -32 -12 -60 -25 -27 -13 -54 -24 -60 -25 -5 -2 -53 -19 -105 -38 -52 -20
-105 -38 -117 -40 -13 -3 -27 -7 -33 -11 -5 -3 -18 -8 -27 -10 -10 -2 -67 -18
-128 -35 -111 -30 -321 -77 -385 -86 -19 -2 -48 -6 -65 -9 -16 -2 -52 -7 -80
-10 -27 -4 -61 -8 -75 -10 -67 -10 -172 -17 -269 -20 -60 -1 -113 -5 -120 -9
-6 -4 -11 -2 -11 4 0 6 -4 9 -8 6 -16 -10 -222 -5 -367 9 -27 2 -81 7 -120 10
-38 3 -77 8 -85 12 -8 3 -35 7 -60 10 -25 2 -51 4 -57 5 -7 1 -13 5 -13 9 0 5
-6 6 -13 3 -21 -8 -417 82 -497 113 -8 4 -18 7 -22 8 -5 2 -10 4 -13 5 -3 1
-8 3 -12 4 -5 1 -39 13 -78 26 -38 13 -72 25 -75 25 -3 1 -14 5 -25 10 -11 4
-42 17 -69 27 -106 41 -312 137 -411 192 -38 21 -88 48 -110 60 -22 11 -42 24
-45 27 -3 3 -20 14 -37 23 -18 9 -33 21 -33 27 0 6 -4 8 -9 5 -5 -3 -19 2 -32
12 -14 9 -31 22 -40 27 -9 6 -29 19 -45 29 -34 23 -251 184 -277 206 -120 98
-187 160 -312 285 -72 71 -154 157 -182 190 -28 33 -61 71 -73 85 -24 27 -37
44 -106 135 -25 33 -50 67 -57 75 -19 23 -187 278 -187 283 0 3 -18 35 -40 71
-22 36 -40 70 -40 75 0 5 -3 11 -7 13 -10 4 -113 212 -113 227 0 6 -4 11 -10
11 -5 0 -9 3 -8 8 1 7 -3 18 -42 107 -44 99 -120 316 -120 341 0 8 -5 14 -12
14 -6 0 -9 3 -6 6 4 3 2 20 -4 37 -10 32 -38 133 -43 152 -1 6 -5 21 -8 35
-23 94 -37 160 -43 194 -3 21 -8 48 -10 60 -5 20 -11 54 -18 101 -3 18 -12 87
-21 160 -2 17 -4 30 -5 30 -3 0 -22 370 -21 400 2 41 2 102 1 110 -1 6 -1 15
0 20 1 6 4 42 6 80 6 122 14 229 18 255 2 14 8 52 12 85 4 33 8 62 9 65 1 3 5
30 10 60 5 30 10 60 11 65 1 6 3 12 4 15 1 3 4 16 6 30 8 54 11 66 17 85 3 11
8 31 11 45 4 21 14 67 31 130 2 8 4 15 5 15 1 0 3 9 5 19 3 16 11 48 20 76 1
3 7 25 14 50 7 25 16 50 19 55 4 6 8 17 9 26 1 9 8 29 14 45 7 16 13 31 14 34
3 14 48 129 60 157 8 17 15 34 15 37 0 3 16 40 35 82 19 41 35 80 35 85 0 5 5
9 12 9 6 0 9 3 6 6 -6 5 35 87 98 202 13 23 36 63 51 90 14 26 43 73 65 105
21 32 38 62 38 67 0 5 3 10 8 12 4 2 34 42 66 91 33 48 64 87 68 87 5 0 6 4 3
10 -3 5 3 15 15 22 11 7 20 17 20 22 0 5 7 16 15 25 8 9 41 48 73 86 127 155
356 388 497 505 50 41 92 77 95 80 20 20 202 150 210 150 5 0 10 3 10 8 0 4
28 25 63 47 34 22 64 42 67 45 6 6 36 23 93 54 20 11 37 23 37 28 0 4 6 8 14
8 8 0 22 7 30 16 9 8 16 13 16 9 0 -3 19 5 43 18 94 54 199 107 211 107 8 0
19 6 25 14 7 8 23 17 37 20 13 4 48 17 77 30 81 36 201 81 209 79 5 -2 8 2 8
8 0 5 3 8 8 5 4 -2 23 3 42 11 19 9 42 17 50 18 8 2 44 12 80 23 68 22 245 69
289 77 34 6 70 13 101 20 50 11 76 15 110 21 19 2 46 7 60 9 102 19 302 37
432 39 49 0 88 5 88 9 0 5 5 5 12 1 6 -4 33 -8 60 -8z"/>
<path d="M3495 6721 c-4 -3 -25 -6 -48 -8 -37 -2 -72 -7 -87 -13 -3 -1 -9 -2
-14 -1 -4 1 -14 -3 -22 -10 -7 -6 -18 -8 -24 -4 -5 3 -10 2 -10 -3 0 -6 -12
-13 -26 -16 -47 -12 -152 -86 -207 -146 -47 -51 -126 -170 -119 -178 2 -1 -4
-15 -13 -30 -44 -78 -55 -288 -20 -407 29 -100 83 -193 160 -270 57 -58 150
-127 175 -131 3 0 23 -8 45 -18 22 -10 47 -19 55 -21 8 -2 15 -4 15 -5 0 -2
59 -11 101 -14 23 -2 46 -6 53 -10 6 -4 11 -4 11 1 0 4 21 8 48 9 70 1 157 20
202 45 8 4 38 19 65 33 67 34 164 123 211 193 21 32 39 60 40 63 0 3 11 28 23
55 24 53 53 173 45 186 -2 4 0 10 6 14 6 4 8 9 6 13 -3 6 -15 107 -19 172 -1
14 -4 27 -7 30 -5 5 -30 67 -34 85 -4 21 -60 115 -68 115 -4 0 -8 6 -8 13 0
24 -186 187 -213 187 -3 0 -22 8 -43 17 -22 9 -42 18 -46 19 -5 1 -10 3 -13 4
-6 3 -6 3 -60 14 -22 5 -56 10 -75 11 -19 2 -35 4 -35 5 0 5 -46 6 -50 1z"/>
<path d="M6695 6721 c-4 -3 -25 -6 -48 -8 -37 -2 -72 -7 -87 -13 -3 -1 -9 -2
-14 -1 -4 1 -14 -3 -22 -10 -7 -6 -18 -8 -24 -4 -5 3 -10 2 -10 -4 0 -5 -13
-12 -30 -16 -16 -4 -30 -11 -30 -16 0 -6 -5 -7 -10 -4 -6 3 -13 -1 -16 -9 -3
-9 -10 -14 -14 -11 -10 6 -113 -77 -158 -129 -31 -36 -100 -148 -94 -154 2 -1
-4 -15 -13 -30 -27 -49 -43 -146 -40 -249 2 -54 6 -105 8 -113 2 -8 9 -35 16
-60 7 -25 12 -46 10 -46 -2 -1 4 -10 13 -20 9 -11 17 -23 18 -29 3 -18 44 -85
52 -85 4 0 8 -6 8 -13 0 -32 216 -207 234 -190 3 4 6 1 6 -5 0 -7 8 -12 18
-12 10 0 22 -4 28 -9 5 -6 23 -12 39 -15 17 -3 41 -9 55 -12 25 -6 102 -15
130 -15 38 0 140 14 160 21 3 1 9 2 14 1 4 -1 14 4 22 10 8 6 14 9 14 5 0 -4
13 0 30 9 16 8 33 16 37 17 23 3 169 109 185 133 3 6 20 26 37 45 35 39 111
183 111 209 0 10 3 21 7 25 10 9 13 38 17 149 4 88 -1 121 -27 222 -7 27 -59
130 -79 156 -54 71 -107 124 -164 165 -34 24 -64 44 -67 44 -2 0 -22 8 -43 17
-22 9 -42 18 -46 19 -5 1 -10 3 -13 4 -6 3 -6 3 -60 14 -22 5 -56 10 -75 11
-19 2 -35 4 -35 5 0 5 -46 6 -50 1z"/>
<path d="M3056 4163 c-3 -3 -21 -7 -38 -8 -74 -4 -198 -52 -239 -94 -10 -9
-30 -28 -47 -43 -61 -56 -141 -210 -128 -245 3 -7 1 -13 -3 -13 -12 0 -6 -167
8 -210 16 -52 63 -142 86 -166 11 -12 36 -41 55 -65 37 -46 231 -241 296 -299
21 -19 82 -67 134 -107 52 -40 101 -78 108 -84 59 -48 280 -182 407 -246 186
-94 551 -233 612 -233 11 0 24 -5 31 -12 7 -7 12 -9 12 -6 0 3 17 2 38 -3 69
-18 169 -39 206 -44 109 -16 237 -30 361 -39 17 -1 35 -5 41 -9 6 -3 14 -4 17
0 4 3 84 7 179 9 95 2 191 6 213 9 22 2 63 7 92 9 56 6 100 13 148 23 17 3 41
7 55 9 14 1 25 3 25 4 0 2 17 6 60 13 17 3 37 8 45 11 8 3 29 8 45 11 32 6 57
12 65 15 3 1 10 3 15 5 6 1 12 3 15 4 3 2 12 4 20 6 55 12 278 90 355 125 112
50 278 133 355 178 101 58 262 165 294 194 11 10 26 18 33 18 8 0 11 5 8 10
-3 5 -2 10 4 10 30 0 313 263 448 415 112 128 163 243 163 371 0 89 -47 224
-100 284 -12 14 -32 36 -44 50 -57 68 -192 132 -281 135 -23 1 -46 4 -52 8 -5
3 -13 4 -16 0 -4 -3 -26 -7 -49 -8 -102 -7 -212 -65 -292 -153 -89 -97 -250
-256 -295 -292 -24 -19 -48 -40 -55 -45 -6 -6 -33 -26 -61 -45 -27 -19 -56
-41 -63 -48 -8 -7 -30 -22 -51 -33 -20 -11 -52 -29 -71 -41 -61 -36 -200 -107
-200 -101 0 3 -6 1 -12 -5 -16 -13 -179 -77 -238 -93 -25 -7 -49 -14 -55 -15
-57 -18 -135 -36 -157 -37 -16 -1 -28 -4 -28 -7 0 -3 -8 -6 -17 -7 -10 -1 -34
-4 -53 -6 -116 -15 -172 -20 -232 -21 -38 -1 -68 -5 -68 -9 0 -5 -5 -5 -11 -2
-16 11 -69 12 -69 2 0 -4 -5 -5 -11 -1 -6 3 -43 8 -82 10 -82 5 -172 12 -172
14 0 1 -9 3 -20 5 -70 12 -103 17 -122 18 -13 1 -23 6 -23 11 0 5 -3 7 -6 4
-3 -4 -20 -2 -37 4 -18 5 -41 11 -52 13 -101 19 -327 108 -465 183 -67 36
-238 143 -268 167 -128 101 -351 309 -352 327 0 13 -86 94 -133 126 -58 40
-146 73 -208 77 -26 1 -51 5 -57 9 -5 3 -12 3 -16 -1z"/>
</g>
</svg>
